#N canvas 1 757 958 322 12;
#X text 445 526 for more info \, get help on:;
#X floatatom 33 432 5 0 0 0 - - -, f 5;
#X floatatom 84 431 5 0 0 0 - - -, f 5;
#X floatatom 130 430 5 0 0 0 - - -, f 5;
#X floatatom 181 429 5 0 0 0 - - -, f 5;
#X obj 33 480 osc~;
#X obj 62 516 dac~;
#X text 95 20 EEG;
#X obj 18 59 import mrpeach/net/udpreceive;
#X obj 17 161 udpreceive localhost 7777;
#X obj 17 198 unpackOSC;
#X obj 18 87 import osc/unpackOSC;
#X msg 17 127 status;
#X obj 213 274 tgl 15 0 empty empty empty 17 7 0 10 -262144 -1 -1 0
1;
#X obj 160 340 print received;
#X obj 160 301 spigot;
#X obj 17 236 routeOSC /xxxxx;
#X text 240 161 <-- receive EEG packets from p2_parse.py OSC client
;
#X text 162 235 <-- all unpacked messages are addressed to /xxxxx;
#X text 237 271 <-- click me to see logs! edit mode off though;
#X obj 17 371 unpack f f f f f f f;
#X text 202 371 comment;
#X connect 1 0 5 0;
#X connect 5 0 6 0;
#X connect 5 0 6 1;
#X connect 9 0 10 0;
#X connect 10 0 16 0;
#X connect 12 0 9 0;
#X connect 13 0 15 1;
#X connect 15 0 14 0;
#X connect 16 0 15 0;
#X connect 16 0 20 0;
#X connect 20 1 1 0;
#X connect 20 2 2 0;
#X connect 20 3 3 0;
#X connect 20 4 4 0;
